<svg id="Layer_1" data-name="Layer 1" xmlns="http://www.w3.org/2000/svg" xmlns:xlink="http://www.w3.org/1999/xlink" viewBox="0 0 246.17 45.17"><defs><style>.cls-1{fill:url(#linear-gradient);}</style><linearGradient id="linear-gradient" x1="2.74" y1="31.08" x2="51.05" y2="8.55" gradientUnits="userSpaceOnUse"><stop offset="0" stop-color="#00adff"/><stop offset="0.65" stop-color="#8b00ff"/></linearGradient></defs><path class="cls-1" d="M51.05,12.22l.06-2.09L51,9.49c-.06-.33-.13-.67-.21-1A10.92,10.92,0,0,0,39.63.05a10.79,10.79,0,0,0-9.49,6.13,26.16,26.16,0,0,0-9.17,0A10.85,10.85,0,0,0,7.05.81,10.81,10.81,0,0,0,.12,9.5l-.06.25L0,11.86l0,.21c.05.22.09.44.13.66.1.52.21,1.06.36,1.59a10.48,10.48,0,0,0,3.6,5.35,21.12,21.12,0,0,0-.62,12.25,15.53,15.53,0,0,0,9,10.71,29.93,29.93,0,0,0,13,2.54l1.52,0a30.34,30.34,0,0,0,9.8-1.76c5-1.85,8.35-4.92,10.14-9.38a19.14,19.14,0,0,0,1.23-8.07A20.58,20.58,0,0,0,47,19.67,11,11,0,0,0,51.05,12.22ZM9.75,19a14.83,14.83,0,0,1,5.79-5.81,20.18,20.18,0,0,1,10.1-2.48,19.84,19.84,0,0,1,9.87,2.46,14.66,14.66,0,0,1,6.69,7.65,16.07,16.07,0,0,1,.42,10.88,10.52,10.52,0,0,1-4.57,5.75A18.85,18.85,0,0,1,30.26,40a34.72,34.72,0,0,1-10.44-.16,18,18,0,0,1-6.55-2.32A10.77,10.77,0,0,1,8,30,16.38,16.38,0,0,1,9.75,19Zm30.67-8.37A22,22,0,0,0,35,7.52a6.19,6.19,0,1,1,9.74,7.63A19.89,19.89,0,0,0,40.42,10.58Zm-34,4.56A6.2,6.2,0,0,1,10.64,4.91H11a6.34,6.34,0,0,1,5.13,2.62A21,21,0,0,0,6.38,15.14ZM25.11,39.42h.39a8.27,8.27,0,0,0,8.34-8.31c0-1.84,0-3.68,0-5.53a9.36,9.36,0,0,0-.18-1.77,8.3,8.3,0,0,0-9.58-6.4,8.15,8.15,0,0,0-6.7,7,27.28,27.28,0,0,0-.11,2.9v2c0,.73,0,1.47,0,2.2A8.22,8.22,0,0,0,25.11,39.42ZM22.22,25a3.22,3.22,0,0,1,2-2.56,3.32,3.32,0,0,1,3.31.32A3.43,3.43,0,0,1,29,25.68c0,1.78,0,3.57,0,5.36a3.41,3.41,0,0,1-6.17,2.08,3.27,3.27,0,0,1-.65-2V28.31h0c0-.14,0-.3,0-.5C22.14,27.14,22.14,25.76,22.22,25Zm-10-.7a2.4,2.4,0,0,1,0-3.43,2.37,2.37,0,0,1,1.71-.73,2.44,2.44,0,0,1,2.45,2.41h0A2.43,2.43,0,0,1,14,25h0A2.42,2.42,0,0,1,12.24,24.33Zm23.18,0a2.41,2.41,0,0,1-.69-1.72,2.35,2.35,0,0,1,.73-1.71,2.39,2.39,0,0,1,1.73-.7,2.43,2.43,0,0,1,1.71.73,2.49,2.49,0,0,1,.7,1.73A2.46,2.46,0,0,1,37.16,25h0A2.44,2.44,0,0,1,35.42,24.3Z"/><path d="M66.66,9.3a2.16,2.16,0,0,1,.81-1.92,3.6,3.6,0,0,1,2.13-.56A6.18,6.18,0,0,1,71.32,7l1,.3V20.71c.42-.35.87-.72,1.35-1.1l1.4-1.16,1.29-1.08c.41-.34.74-.63,1-.86l.93-.79a3.75,3.75,0,0,1,.84-.54,4.15,4.15,0,0,1,.92-.31,5.81,5.81,0,0,1,1.19-.11,3.9,3.9,0,0,1,1.3.21,5.12,5.12,0,0,1,1,.51,4.56,4.56,0,0,1,.77.63,2.77,2.77,0,0,1,.45.58c-.44.46-1,1-1.66,1.57S81.78,19.42,81.07,20L79,21.64c-.66.52-1.21,1-1.63,1.31a55.67,55.67,0,0,1,4.4,4.5,53.46,53.46,0,0,1,4,5.16h-7c-.47-.63-1-1.27-1.54-1.92s-1.13-1.29-1.72-1.89-1.15-1.19-1.71-1.74-1.08-1-1.54-1.52v7.07H66.66Z"/><path d="M86.58,23.69a9,9,0,0,1,.77-3.75,9.12,9.12,0,0,1,2.12-3,9.93,9.93,0,0,1,3.13-2,10.6,10.6,0,0,1,7.68,0,10,10,0,0,1,3.15,2,9.27,9.27,0,0,1,2.12,3,9.21,9.21,0,0,1-2.12,10.47,9.82,9.82,0,0,1-3.15,2,10.6,10.6,0,0,1-7.68,0,9.73,9.73,0,0,1-3.13-2,9.05,9.05,0,0,1-2.12-3A8.91,8.91,0,0,1,86.58,23.69Zm9.87,4.37a4.06,4.06,0,0,0,1.63-.33,4.28,4.28,0,0,0,1.31-.91,4.08,4.08,0,0,0,.86-1.38,5.43,5.43,0,0,0,0-3.5,4,4,0,0,0-.86-1.39,4.46,4.46,0,0,0-1.31-.91,4.06,4.06,0,0,0-1.63-.33,4,4,0,0,0-1.65.33,4.37,4.37,0,0,0-1.29.91,3.88,3.88,0,0,0-.86,1.39,5.25,5.25,0,0,0,0,3.5,3.93,3.93,0,0,0,.86,1.38,4.19,4.19,0,0,0,1.29.91A4,4,0,0,0,96.45,28.06Z"/><path d="M126,32.51a6.4,6.4,0,0,1-.95.15l-1.83.2c-.74.07-1.58.12-2.52.17s-2,.07-3,.07a17.54,17.54,0,0,1-4.41-.47,8.1,8.1,0,0,1-2.8-1.28A4.35,4.35,0,0,1,109,29.48a6.13,6.13,0,0,1-.42-2.26,5.12,5.12,0,0,1,2.07-4.6c1.37-.92,3.56-1.38,6.54-1.38.75,0,1.37,0,1.88,0s.91.06,1.24.11a2.25,2.25,0,0,0-1-1.93,6,6,0,0,0-3.31-.7,13.2,13.2,0,0,0-1.9.12,12.31,12.31,0,0,0-1.4.3,6.92,6.92,0,0,0-.93.35,3.28,3.28,0,0,0-.49.28c-.05,0-.14-.14-.28-.28a3.17,3.17,0,0,1-.42-.54,5.24,5.24,0,0,1-.39-.75,2.49,2.49,0,0,1-.17-.91c0-2,2.07-3.05,6.23-3.05a18.52,18.52,0,0,1,3.81.37,8.37,8.37,0,0,1,3.1,1.26,6.21,6.21,0,0,1,2.06,2.36,7.93,7.93,0,0,1,.76,3.68Zm-5.64-7.32a8.06,8.06,0,0,0-.93-.12c-.4,0-1-.05-1.83-.05a7.37,7.37,0,0,0-1.72.17,3,3,0,0,0-1,.47,1.68,1.68,0,0,0-.51.69,2.36,2.36,0,0,0-.14.8,2.4,2.4,0,0,0,.11.67,1.33,1.33,0,0,0,.45.63,3.24,3.24,0,0,0,1,.47,7.23,7.23,0,0,0,1.86.19c.6,0,1.16,0,1.68-.05a7.81,7.81,0,0,0,1-.12Z"/><path d="M130,9.3a2.16,2.16,0,0,1,.81-1.92A3.6,3.6,0,0,1,133,6.82a6.18,6.18,0,0,1,1.72.22l1,.3V32.61H130Z"/><path d="M156.19,32.51a6.18,6.18,0,0,1-.94.15l-1.84.2c-.74.07-1.58.12-2.52.17s-1.94.07-3,.07a17.43,17.43,0,0,1-4.41-.47,8,8,0,0,1-2.8-1.28,4.35,4.35,0,0,1-1.47-1.87,6.13,6.13,0,0,1-.42-2.26c0-2.14.68-3.68,2.06-4.6s3.56-1.38,6.55-1.38c.74,0,1.37,0,1.87,0s.91.06,1.24.11a2.23,2.23,0,0,0-1-1.93,6,6,0,0,0-3.3-.7,13.35,13.35,0,0,0-1.91.12,12.31,12.31,0,0,0-1.4.3,6.92,6.92,0,0,0-.93.35,3.93,3.93,0,0,0-.49.28c-.05,0-.14-.14-.28-.28a3.17,3.17,0,0,1-.42-.54,4.38,4.38,0,0,1-.38-.75,2.31,2.31,0,0,1-.18-.91q0-3,6.23-3.05a18.62,18.62,0,0,1,3.82.37,8.25,8.25,0,0,1,3.09,1.26,6.15,6.15,0,0,1,2.07,2.36,8.06,8.06,0,0,1,.75,3.68Zm-5.63-7.32a8.06,8.06,0,0,0-.93-.12c-.41,0-1-.05-1.84-.05a7.22,7.22,0,0,0-1.71.17,3,3,0,0,0-1,.47,1.57,1.57,0,0,0-.5.69,2.14,2.14,0,0,0-.14.8,2.37,2.37,0,0,0,.1.67,1.29,1.29,0,0,0,.46.63,3,3,0,0,0,1,.47,7.09,7.09,0,0,0,1.85.19c.61,0,1.17,0,1.68-.05a8.32,8.32,0,0,0,1-.12Z"/><path d="M162.42,34.36a3.85,3.85,0,0,0,.56.25,12.23,12.23,0,0,0,1.17.36,15.78,15.78,0,0,0,1.68.35,12.49,12.49,0,0,0,2.09.16,8.6,8.6,0,0,0,2.08-.24,4,4,0,0,0,1.64-.83,3.84,3.84,0,0,0,1.07-1.47,5.52,5.52,0,0,0,.39-2.22v-.38c-.12.11-.31.28-.58.49a6,6,0,0,1-1.05.63A9.77,9.77,0,0,1,170,32a7.46,7.46,0,0,1-2,.24,10.1,10.1,0,0,1-3.49-.58A7.43,7.43,0,0,1,160,27.24a10.2,10.2,0,0,1-.63-3.69,9.43,9.43,0,0,1,.74-3.77,8.71,8.71,0,0,1,2-2.92A9.32,9.32,0,0,1,165.2,15a11.31,11.31,0,0,1,4-.68,11,11,0,0,1,4.46.91A8.67,8.67,0,0,1,177,17.84a8,8,0,0,1,1.27,2.63,13.56,13.56,0,0,1,.44,3.81V29.5a13,13,0,0,1-.77,4.7,8.31,8.31,0,0,1-5.37,5.15,13,13,0,0,1-4.08.61,19,19,0,0,1-2.83-.19,20.72,20.72,0,0,1-2.3-.46,14.08,14.08,0,0,1-1.64-.52,7,7,0,0,1-.86-.4Zm2.7-10.81a3.72,3.72,0,0,0,1.12,3,4.15,4.15,0,0,0,2.87,1A4,4,0,0,0,172,26.42a3.79,3.79,0,0,0,1.14-2.87A4,4,0,0,0,172,20.62a3.9,3.9,0,0,0-2.85-1.13,4,4,0,0,0-1.61.31,3.63,3.63,0,0,0-1.26.88,4.14,4.14,0,0,0-.83,1.29A4.35,4.35,0,0,0,165.12,23.55Z"/><path d="M182.16,21.41a7.46,7.46,0,0,1,.58-3,6.17,6.17,0,0,1,1.59-2.24,6.84,6.84,0,0,1,2.45-1.39,10.2,10.2,0,0,1,3.15-.47,9.16,9.16,0,0,1,3.27.46,4.94,4.94,0,0,1,1.7,1,3,3,0,0,1,.49.73,2.14,2.14,0,0,1,.18.91,3.1,3.1,0,0,1-.16,1,4.06,4.06,0,0,1-.39.81,5.34,5.34,0,0,1-.43.59,4.57,4.57,0,0,1-.32.35,10.47,10.47,0,0,0-1.43-.52,6.39,6.39,0,0,0-1.86-.25,3.44,3.44,0,0,0-2.26.77,3.19,3.19,0,0,0-.92,2.56v10h-5.64Z"/><path d="M213.66,32.51a6.18,6.18,0,0,1-.94.15l-1.84.2c-.74.07-1.58.12-2.52.17s-1.94.07-3,.07a17.43,17.43,0,0,1-4.41-.47,8,8,0,0,1-2.8-1.28,4.35,4.35,0,0,1-1.47-1.87,6.13,6.13,0,0,1-.42-2.26c0-2.14.68-3.68,2.06-4.6s3.56-1.38,6.55-1.38c.74,0,1.37,0,1.87,0s.91.06,1.24.11a2.23,2.23,0,0,0-1-1.93,6,6,0,0,0-3.3-.7,13.35,13.35,0,0,0-1.91.12,12.31,12.31,0,0,0-1.4.3,6.92,6.92,0,0,0-.93.35,3.93,3.93,0,0,0-.49.28c-.05,0-.14-.14-.28-.28a3.17,3.17,0,0,1-.42-.54,4.38,4.38,0,0,1-.38-.75,2.31,2.31,0,0,1-.18-.91q0-3,6.23-3.05a18.62,18.62,0,0,1,3.82.37,8.25,8.25,0,0,1,3.09,1.26,6.15,6.15,0,0,1,2.07,2.36,8.06,8.06,0,0,1,.75,3.68ZM208,25.19a8.06,8.06,0,0,0-.93-.12c-.41,0-1-.05-1.84-.05a7.22,7.22,0,0,0-1.71.17,3,3,0,0,0-1,.47,1.57,1.57,0,0,0-.5.69,2.14,2.14,0,0,0-.14.8,2.37,2.37,0,0,0,.1.67,1.29,1.29,0,0,0,.46.63,3,3,0,0,0,1,.47,7.09,7.09,0,0,0,1.85.19c.61,0,1.17,0,1.68-.05a8.32,8.32,0,0,0,1-.12Z"/><path d="M217.51,21.17a6.87,6.87,0,0,1,.61-3A6.33,6.33,0,0,1,219.8,16a7.19,7.19,0,0,1,2.52-1.31,11,11,0,0,1,3.17-.44,9.56,9.56,0,0,1,3.74.7,6.79,6.79,0,0,1,2.67,2,6.76,6.76,0,0,1,2.62-2,9.33,9.33,0,0,1,3.71-.7,10.86,10.86,0,0,1,3.13.44A7.19,7.19,0,0,1,243.88,16a6.33,6.33,0,0,1,1.68,2.15,6.87,6.87,0,0,1,.61,3V32.61h-5.63V22.78a3.71,3.71,0,0,0-.73-2.56,2.74,2.74,0,0,0-2.07-.77,2.93,2.93,0,0,0-2.22.91,4.16,4.16,0,0,0-.86,2.91v9.34H229V23.27a4.22,4.22,0,0,0-.83-2.91,2.89,2.89,0,0,0-2.21-.91,2.78,2.78,0,0,0-2.08.77,3.61,3.61,0,0,0-.75,2.56v9.83h-5.64Z"/></svg>